<?xml version="1.0" standalone="no"?>
<!DOCTYPE svg PUBLIC "-//W3C//DTD SVG 20010904//EN"
 "http://www.w3.org/TR/2001/REC-SVG-20010904/DTD/svg10.dtd">
<svg version="1.0" xmlns="http://www.w3.org/2000/svg"
 width="500.000000pt" height="500.000000pt" viewBox="0 0 500.000000 500.000000"
 preserveAspectRatio="xMidYMid meet">
<metadata>
Created by potrace 1.16, written by Peter Selinger 2001-2019
</metadata>
<g transform="translate(0.000000,500.000000) scale(0.100000,-0.100000)"
fill="#000000" stroke="none">
<path d="M2616 3959 c-20 -16 -26 -29 -26 -61 0 -40 -6 -46 -237 -278 -131
-131 -248 -251 -261 -267 -47 -57 -87 -154 -98 -236 -6 -40 -16 -54 -105 -143
-90 -90 -102 -98 -138 -99 -51 -1 -81 -27 -81 -71 0 -57 60 -95 109 -69 32 16
41 33 41 79 0 26 13 45 78 109 42 42 80 77 84 77 3 0 9 -21 13 -46 18 -124
113 -271 221 -343 36 -24 50 -28 61 -20 19 16 17 23 -17 42 -95 57 -180 170
-211 285 -30 106 -26 131 25 181 24 24 46 39 49 34 3 -5 0 -27 -6 -50 -22 -84
33 -233 118 -316 68 -67 130 -97 225 -110 65 -9 87 -7 145 8 81 22 132 59 262
186 52 51 96 90 98 87 7 -6 -18 -78 -44 -128 -14 -28 -113 -135 -255 -278
-200 -202 -234 -232 -256 -228 -37 7 -87 -28 -96 -66 -6 -28 -2 -36 26 -61 43
-39 86 -35 117 12 15 22 21 42 17 57 -5 21 24 54 211 241 120 120 231 237 247
261 48 69 78 150 92 248 1 8 49 62 106 119 85 85 108 103 126 99 12 -3 38 2
58 11 32 16 36 21 36 57 0 46 -35 88 -73 88 -39 0 -77 -43 -77 -87 0 -35 -8
-46 -85 -123 -56 -55 -86 -79 -88 -69 -3 8 -12 43 -22 79 -21 84 -65 165 -118
221 -82 86 -133 116 -162 95 -16 -11 -13 -15 26 -38 44 -26 131 -112 160 -158
28 -44 56 -133 63 -199 l7 -64 -37 -38 c-21 -22 -41 -39 -46 -39 -4 0 -7 40
-7 89 0 109 -26 179 -95 257 -109 124 -278 165 -434 106 -63 -24 -82 -39 -209
-164 -90 -88 -103 -98 -103 -76 0 14 16 57 35 95 30 61 68 104 285 322 207
209 254 251 271 246 31 -10 76 13 89 45 33 80 -46 142 -114 89z m78 -627 c56
-37 91 -78 123 -142 25 -48 28 -66 28 -150 0 -113 -21 -167 -96 -242 -56 -56
-190 -120 -204 -97 -3 5 35 49 84 98 112 111 135 153 135 241 0 51 -6 76 -26
116 -44 85 -132 143 -215 144 -54 0 -56 17 -8 58 l35 31 51 -15 c29 -9 70 -28
93 -42z m-297 -29 c-129 -132 -150 -168 -148 -259 3 -143 97 -247 236 -261 30
-3 55 -9 55 -12 0 -4 -15 -22 -34 -40 -31 -31 -37 -33 -78 -26 -92 15 -184 89
-235 188 -23 45 -27 64 -27 147 -1 84 3 102 27 151 46 95 171 189 251 189 29
0 27 -3 -47 -77z m216 -75 c23 -13 55 -43 72 -66 27 -40 30 -51 30 -122 0 -71
-3 -82 -30 -121 -74 -105 -235 -123 -327 -38 -46 43 -63 88 -62 166 0 64 3 77
30 115 66 94 187 121 287 66z"/>
<path d="M2884 3867 c-21 -18 -26 -32 -26 -64 1 -35 -5 -46 -52 -92 -45 -44
-57 -51 -73 -43 -10 6 -47 15 -82 22 -53 10 -66 9 -87 -5 -36 -24 -29 -35 24
-36 26 0 65 -6 87 -13 l40 -12 -57 -60 c-32 -34 -58 -64 -58 -67 0 -4 10 -7
23 -7 14 0 44 21 79 55 31 30 62 55 69 55 24 0 105 -54 161 -108 64 -61 129
-156 149 -217 17 -51 16 -50 34 -35 22 18 19 38 -17 105 -48 93 -112 170 -184
222 -36 26 -76 56 -88 66 l-21 17 44 40 c32 29 52 40 76 40 18 0 44 10 60 22
24 19 27 26 22 62 -10 72 -70 98 -123 53z"/>
<path d="M2250 3646 c-91 -44 -145 -92 -439 -386 -292 -292 -300 -299 -333
-294 -44 8 -88 -30 -88 -76 0 -36 38 -80 69 -80 56 0 101 52 88 101 -5 18 28
55 180 206 102 101 187 182 189 180 2 -2 -3 -20 -11 -41 -17 -39 -41 -194 -32
-203 3 -3 14 3 25 13 13 12 22 40 27 77 19 161 117 314 265 417 56 39 117 97
109 104 -2 2 -24 -6 -49 -18z"/>
<path d="M3498 3259 c-23 -17 -28 -29 -28 -62 0 -41 -4 -47 -166 -210 -92 -92
-169 -166 -171 -163 -3 2 2 28 10 58 19 67 32 178 20 178 -21 0 -41 -42 -51
-110 -22 -148 -124 -305 -259 -396 -62 -43 -139 -114 -123 -114 16 0 139 67
180 98 19 15 160 152 314 305 203 202 284 278 300 276 63 -5 96 23 96 83 0 32
-5 41 -32 58 -41 25 -56 25 -90 -1z"/>
<path d="M1919 2856 c-9 -19 -6 -33 16 -77 61 -120 143 -212 248 -276 l58 -35
-58 -59 c-50 -51 -62 -59 -85 -54 -29 7 -65 -8 -85 -34 -35 -45 10 -121 72
-121 44 0 78 40 73 86 -4 31 2 40 64 100 54 53 71 63 85 56 10 -5 49 -15 86
-22 61 -11 70 -11 87 5 30 27 25 35 -21 35 -45 0 -129 19 -129 29 0 4 25 31
55 61 30 30 55 58 55 62 0 4 -11 8 -24 8 -16 0 -42 -18 -77 -55 -29 -30 -59
-55 -66 -55 -24 0 -114 56 -168 106 -46 42 -96 114 -131 187 -20 42 -38 77
-40 77 -3 0 -9 -11 -15 -24z"/>
<path d="M2207 2054 c-4 -4 -7 -85 -7 -181 0 -147 2 -175 15 -180 23 -8 26 -1
29 69 3 78 9 88 46 88 34 0 40 -13 40 -96 0 -57 2 -64 20 -64 18 0 20 7 20 70
0 109 -23 139 -95 126 l-34 -7 -3 87 c-3 80 -12 107 -31 88z"/>
<path d="M2632 1960 c-16 -36 -39 -87 -51 -115 -13 -27 -31 -69 -42 -93 -24
-53 -24 -62 0 -62 13 0 24 13 35 40 l16 40 70 0 70 0 20 -40 c14 -27 27 -40
41 -40 25 0 22 9 -26 109 -19 40 -35 73 -35 75 0 3 -15 37 -34 78 l-35 73 -29
-65z"/>
<path d="M756 1988 c-17 -84 -39 -189 -47 -225 -13 -60 -11 -73 10 -73 21 0
24 8 42 123 6 42 15 77 18 77 3 0 24 -43 46 -96 22 -53 43 -98 46 -100 4 -2
14 20 24 48 9 29 29 77 45 107 l27 55 12 -65 c6 -36 11 -76 11 -88 0 -31 18
-61 35 -61 8 0 15 7 15 16 0 27 -53 288 -60 297 -3 4 -28 -42 -54 -103 -27
-60 -52 -107 -57 -104 -11 6 -40 69 -69 147 -24 65 -37 78 -44 45z"/>
<path d="M1092 1865 c-61 -51 -46 -139 28 -169 41 -16 44 -16 84 4 33 15 45
29 54 56 30 99 -87 176 -166 109z"/>
<path d="M1297 1883 c-13 -12 -7 -115 8 -148 21 -44 57 -59 100 -44 43 16 55
44 55 129 0 63 -2 70 -20 70 -17 0 -19 -8 -22 -77 l-3 -78 -33 -3 c-27 -3 -34
1 -42 23 -6 14 -10 51 -10 81 0 38 -4 54 -13 54 -8 0 -17 -3 -20 -7z"/>
<path d="M1512 1791 c2 -77 6 -96 18 -96 11 0 16 15 18 65 4 74 13 90 53 90
l28 0 3 -77 c3 -70 5 -78 23 -78 40 0 29 162 -14 184 -9 5 -43 9 -74 9 l-58
-1 3 -96z"/>
<path d="M1845 1866 c-32 -32 -40 -69 -26 -117 9 -30 20 -42 47 -54 43 -18 74
-12 105 21 17 18 20 27 12 35 -9 9 -18 6 -37 -9 -35 -27 -96 -12 -96 24 0 11
18 14 75 14 83 0 88 5 60 60 -29 55 -98 68 -140 26z"/>
<path d="M2831 1812 c5 -99 21 -122 85 -122 60 0 74 23 74 122 0 71 -2 78 -20
78 -18 0 -20 -7 -20 -80 0 -84 -2 -87 -50 -80 -23 3 -25 7 -30 83 -4 60 -8 72
-24 75 -17 4 -18 -2 -15 -76z"/>
<path d="M3190 1883 c-51 -20 -79 -78 -60 -127 16 -44 49 -65 102 -66 40 0 50
4 72 31 54 63 19 157 -61 165 -21 2 -45 1 -53 -3z"/>
<path d="M3360 1789 c0 -92 1 -99 20 -99 17 0 20 7 21 53 2 83 10 102 44 102
l30 0 5 -75 c4 -61 8 -75 23 -78 14 -3 17 5 18 50 1 80 10 103 39 103 24 0 25
-3 28 -77 3 -70 5 -78 22 -78 18 0 20 7 20 78 0 112 -30 144 -104 111 -18 -8
-29 -9 -38 -2 -7 6 -39 10 -70 10 l-58 0 0 -98z"/>
<path d="M3705 1864 c-47 -44 -43 -125 9 -159 25 -17 30 -17 106 -12 l45 3 3
95 3 95 -70 2 c-61 1 -72 -2 -96 -24z"/>
<path d="M4143 1873 c-68 -60 -61 -137 14 -174 l43 -21 45 22 c35 17 47 29 54
57 12 43 -5 92 -40 117 -31 21 -91 21 -116 -1z"/>
<path d="M4340 1787 c0 -88 2 -98 18 -95 14 3 18 16 20 76 3 67 5 72 27 78 46
11 54 0 57 -78 2 -60 6 -73 21 -76 15 -3 17 5 17 67 0 75 -13 118 -39 125 -9
3 -40 4 -68 3 l-53 -1 0 -99z"/>
</g>
</svg>
